<mxfile host="app.diagrams.net" modified="2021-09-26T03:31:06.644Z" agent="5.0 (Windows NT 6.3; Win64; x64) AppleWebKit/537.36 (KHTML, like Gecko) Chrome/92.0.4515.131 Safari/537.36 OPR/78.0.4093.153" etag="Jt6Vbj6wvWrzxHiNQFcf" version="15.3.3" type="github">
  <diagram id="R2lEEEUBdFMjLlhIrx00" name="Page-1">
    <mxGraphModel dx="1378" dy="805" grid="1" gridSize="10" guides="1" tooltips="1" connect="1" arrows="1" fold="1" page="1" pageScale="1" pageWidth="850" pageHeight="1100" math="0" shadow="0" extFonts="Permanent Marker^https://fonts.googleapis.com/css?family=Permanent+Marker">
      <root>
        <mxCell id="0" />
        <mxCell id="1" parent="0" />
        <mxCell id="xJj9gay0s5eyYbDpVhSb-6" style="edgeStyle=none;curved=1;rounded=0;orthogonalLoop=1;jettySize=auto;html=1;exitX=0.5;exitY=0;exitDx=0;exitDy=0;entryX=0.5;entryY=1;entryDx=0;entryDy=0;endArrow=open;startSize=14;endSize=14;sourcePerimeterSpacing=8;targetPerimeterSpacing=8;" edge="1" parent="1" source="xJj9gay0s5eyYbDpVhSb-1" target="xJj9gay0s5eyYbDpVhSb-5">
          <mxGeometry relative="1" as="geometry" />
        </mxCell>
        <mxCell id="xJj9gay0s5eyYbDpVhSb-1" value="Owner" style="swimlane;hachureGap=4;pointerEvents=0;rounded=1;shadow=0;strokeWidth=3;fillColor=#1ba1e2;strokeColor=none;fontColor=#ffffff;swimlaneFillColor=default;" vertex="1" parent="1">
          <mxGeometry x="640" y="600" width="200" height="130" as="geometry" />
        </mxCell>
        <mxCell id="xJj9gay0s5eyYbDpVhSb-4" value="&lt;font style=&quot;font-size: 25px&quot;&gt;&lt;b&gt;Owner_ID&lt;br&gt;Owner_Name&lt;/b&gt;&lt;/font&gt;" style="text;html=1;align=center;verticalAlign=middle;resizable=0;points=[];autosize=1;strokeColor=none;fillColor=none;" vertex="1" parent="xJj9gay0s5eyYbDpVhSb-1">
          <mxGeometry x="10" y="50" width="180" height="40" as="geometry" />
        </mxCell>
        <mxCell id="xJj9gay0s5eyYbDpVhSb-11" style="edgeStyle=none;curved=1;rounded=0;orthogonalLoop=1;jettySize=auto;html=1;exitX=0.5;exitY=0;exitDx=0;exitDy=0;fontSize=15;endArrow=open;startSize=14;endSize=14;sourcePerimeterSpacing=8;targetPerimeterSpacing=8;entryX=0.5;entryY=0.967;entryDx=0;entryDy=0;entryPerimeter=0;" edge="1" parent="1" source="xJj9gay0s5eyYbDpVhSb-5" target="xJj9gay0s5eyYbDpVhSb-10">
          <mxGeometry relative="1" as="geometry">
            <mxPoint x="649" y="345" as="targetPoint" />
          </mxGeometry>
        </mxCell>
        <mxCell id="xJj9gay0s5eyYbDpVhSb-5" value="&lt;font style=&quot;font-size: 20px&quot;&gt;work&lt;/font&gt;" style="rhombus;whiteSpace=wrap;html=1;rounded=1;shadow=1;hachureGap=4;pointerEvents=0;fillColor=#a20025;strokeColor=#6F0000;fontColor=#ffffff;" vertex="1" parent="1">
          <mxGeometry x="690" y="470" width="100" height="80" as="geometry" />
        </mxCell>
        <mxCell id="xJj9gay0s5eyYbDpVhSb-7" value="Gymnasiums" style="swimlane;fontStyle=0;childLayout=stackLayout;horizontal=1;startSize=30;horizontalStack=0;resizeParent=1;resizeParentMax=0;resizeLast=0;collapsible=1;marginBottom=0;rounded=1;shadow=1;hachureGap=4;pointerEvents=0;fontSize=15;swimlaneFillColor=default;fillColor=#f5f5f5;strokeColor=#666666;fontColor=#333333;" vertex="1" parent="1">
          <mxGeometry x="670" y="230" width="140" height="120" as="geometry" />
        </mxCell>
        <mxCell id="xJj9gay0s5eyYbDpVhSb-8" value="Name" style="text;strokeColor=none;fillColor=none;align=center;verticalAlign=middle;spacingLeft=4;spacingRight=4;overflow=hidden;points=[[0,0.5],[1,0.5]];portConstraint=eastwest;rotatable=0;fontSize=15;" vertex="1" parent="xJj9gay0s5eyYbDpVhSb-7">
          <mxGeometry y="30" width="140" height="30" as="geometry" />
        </mxCell>
        <mxCell id="xJj9gay0s5eyYbDpVhSb-9" value="Adress" style="text;strokeColor=none;fillColor=none;align=center;verticalAlign=middle;spacingLeft=4;spacingRight=4;overflow=hidden;points=[[0,0.5],[1,0.5]];portConstraint=eastwest;rotatable=0;fontSize=15;" vertex="1" parent="xJj9gay0s5eyYbDpVhSb-7">
          <mxGeometry y="60" width="140" height="30" as="geometry" />
        </mxCell>
        <mxCell id="xJj9gay0s5eyYbDpVhSb-10" value="telephone_Number" style="text;strokeColor=none;fillColor=none;align=center;verticalAlign=middle;spacingLeft=4;spacingRight=4;overflow=hidden;points=[[0,0.5],[1,0.5]];portConstraint=eastwest;rotatable=0;fontSize=15;" vertex="1" parent="xJj9gay0s5eyYbDpVhSb-7">
          <mxGeometry y="90" width="140" height="30" as="geometry" />
        </mxCell>
        <mxCell id="xJj9gay0s5eyYbDpVhSb-42" style="edgeStyle=orthogonalEdgeStyle;rounded=0;orthogonalLoop=1;jettySize=auto;html=1;exitX=0.5;exitY=1;exitDx=0;exitDy=0;fontSize=19;fontColor=#FFFCFC;endArrow=open;startSize=14;endSize=14;sourcePerimeterSpacing=8;targetPerimeterSpacing=8;entryX=0.5;entryY=0;entryDx=0;entryDy=0;" edge="1" parent="1" source="xJj9gay0s5eyYbDpVhSb-12" target="xJj9gay0s5eyYbDpVhSb-43">
          <mxGeometry relative="1" as="geometry">
            <mxPoint x="90" y="460" as="targetPoint" />
          </mxGeometry>
        </mxCell>
        <mxCell id="xJj9gay0s5eyYbDpVhSb-12" value="Member" style="swimlane;fontStyle=0;childLayout=stackLayout;horizontal=1;startSize=30;horizontalStack=0;resizeParent=1;resizeParentMax=0;resizeLast=0;collapsible=1;marginBottom=0;rounded=1;shadow=1;hachureGap=4;pointerEvents=0;fontSize=15;fillColor=#6a00ff;align=center;strokeColor=#3700CC;fontColor=#ffffff;swimlaneFillColor=default;" vertex="1" parent="1">
          <mxGeometry x="30" y="220" width="190" height="180" as="geometry" />
        </mxCell>
        <mxCell id="xJj9gay0s5eyYbDpVhSb-13" value="First_Name" style="text;strokeColor=none;fillColor=none;align=center;verticalAlign=middle;spacingLeft=4;spacingRight=4;overflow=hidden;points=[[0,0.5],[1,0.5]];portConstraint=eastwest;rotatable=0;" vertex="1" parent="xJj9gay0s5eyYbDpVhSb-12">
          <mxGeometry y="30" width="190" height="30" as="geometry" />
        </mxCell>
        <mxCell id="xJj9gay0s5eyYbDpVhSb-14" value="Last_Name" style="text;strokeColor=none;fillColor=none;align=center;verticalAlign=middle;spacingLeft=4;spacingRight=4;overflow=hidden;points=[[0,0.5],[1,0.5]];portConstraint=eastwest;rotatable=0;" vertex="1" parent="xJj9gay0s5eyYbDpVhSb-12">
          <mxGeometry y="60" width="190" height="30" as="geometry" />
        </mxCell>
        <mxCell id="xJj9gay0s5eyYbDpVhSb-15" value="Adress" style="text;strokeColor=none;fillColor=none;align=center;verticalAlign=middle;spacingLeft=4;spacingRight=4;overflow=hidden;points=[[0,0.5],[1,0.5]];portConstraint=eastwest;rotatable=0;" vertex="1" parent="xJj9gay0s5eyYbDpVhSb-12">
          <mxGeometry y="90" width="190" height="30" as="geometry" />
        </mxCell>
        <mxCell id="xJj9gay0s5eyYbDpVhSb-18" value="Date_of_Birth" style="text;strokeColor=none;fillColor=none;align=center;verticalAlign=middle;spacingLeft=4;spacingRight=4;overflow=hidden;points=[[0,0.5],[1,0.5]];portConstraint=eastwest;rotatable=0;rounded=1;shadow=1;hachureGap=4;pointerEvents=0;fontSize=15;" vertex="1" parent="xJj9gay0s5eyYbDpVhSb-12">
          <mxGeometry y="120" width="190" height="30" as="geometry" />
        </mxCell>
        <mxCell id="xJj9gay0s5eyYbDpVhSb-17" value="Gender" style="text;strokeColor=none;fillColor=none;align=center;verticalAlign=middle;spacingLeft=4;spacingRight=4;overflow=hidden;points=[[0,0.5],[1,0.5]];portConstraint=eastwest;rotatable=0;rounded=1;shadow=1;hachureGap=4;pointerEvents=0;fontSize=15;" vertex="1" parent="xJj9gay0s5eyYbDpVhSb-12">
          <mxGeometry y="150" width="190" height="30" as="geometry" />
        </mxCell>
        <mxCell id="xJj9gay0s5eyYbDpVhSb-24" style="edgeStyle=orthogonalEdgeStyle;rounded=0;orthogonalLoop=1;jettySize=auto;html=1;exitX=1;exitY=0.5;exitDx=0;exitDy=0;entryX=0;entryY=0.5;entryDx=0;entryDy=0;fontSize=15;endArrow=open;startSize=14;endSize=14;sourcePerimeterSpacing=8;targetPerimeterSpacing=8;" edge="1" parent="1" source="xJj9gay0s5eyYbDpVhSb-22" target="xJj9gay0s5eyYbDpVhSb-9">
          <mxGeometry relative="1" as="geometry" />
        </mxCell>
        <mxCell id="xJj9gay0s5eyYbDpVhSb-22" value="&lt;font color=&quot;#fffcfc&quot;&gt;Register&lt;/font&gt;" style="rhombus;whiteSpace=wrap;html=1;rounded=1;shadow=0;hachureGap=4;pointerEvents=0;fontSize=15;strokeWidth=3;fillColor=#d80073;align=center;strokeColor=#A50040;fontColor=#ffffff;" vertex="1" parent="1">
          <mxGeometry x="360" y="260" width="150" height="80" as="geometry" />
        </mxCell>
        <mxCell id="xJj9gay0s5eyYbDpVhSb-23" style="edgeStyle=orthogonalEdgeStyle;rounded=0;orthogonalLoop=1;jettySize=auto;html=1;exitX=1;exitY=0.5;exitDx=0;exitDy=0;entryX=0;entryY=0.5;entryDx=0;entryDy=0;fontSize=15;endArrow=open;startSize=14;endSize=14;sourcePerimeterSpacing=8;targetPerimeterSpacing=8;" edge="1" parent="1" source="xJj9gay0s5eyYbDpVhSb-15" target="xJj9gay0s5eyYbDpVhSb-22">
          <mxGeometry relative="1" as="geometry" />
        </mxCell>
        <mxCell id="xJj9gay0s5eyYbDpVhSb-25" value="Session" style="swimlane;fontStyle=0;childLayout=stackLayout;horizontal=1;startSize=30;horizontalStack=0;resizeParent=1;resizeParentMax=0;resizeLast=0;collapsible=1;marginBottom=0;rounded=1;shadow=0;hachureGap=4;pointerEvents=0;fontSize=19;strokeWidth=3;fillColor=#fad9d5;align=center;swimlaneFillColor=default;strokeColor=#ae4132;fontColor=#FFFCFC;" vertex="1" parent="1">
          <mxGeometry x="20" y="560" width="140" height="90" as="geometry" />
        </mxCell>
        <mxCell id="xJj9gay0s5eyYbDpVhSb-26" value="Sport" style="text;strokeColor=none;fillColor=none;align=center;verticalAlign=middle;spacingLeft=4;spacingRight=4;overflow=hidden;points=[[0,0.5],[1,0.5]];portConstraint=eastwest;rotatable=0;fontSize=17;" vertex="1" parent="xJj9gay0s5eyYbDpVhSb-25">
          <mxGeometry y="30" width="140" height="30" as="geometry" />
        </mxCell>
        <mxCell id="xJj9gay0s5eyYbDpVhSb-27" value="Schedule" style="text;strokeColor=none;fillColor=none;align=center;verticalAlign=middle;spacingLeft=4;spacingRight=4;overflow=hidden;points=[[0,0.5],[1,0.5]];portConstraint=eastwest;rotatable=0;fontSize=17;" vertex="1" parent="xJj9gay0s5eyYbDpVhSb-25">
          <mxGeometry y="60" width="140" height="30" as="geometry" />
        </mxCell>
        <mxCell id="xJj9gay0s5eyYbDpVhSb-37" value="" style="edgeStyle=orthogonalEdgeStyle;rounded=0;orthogonalLoop=1;jettySize=auto;html=1;fontSize=19;fontColor=#FFFCFC;endArrow=open;startSize=14;endSize=14;sourcePerimeterSpacing=8;targetPerimeterSpacing=8;entryX=0.5;entryY=1;entryDx=0;entryDy=0;exitX=0.5;exitY=0;exitDx=0;exitDy=0;exitPerimeter=0;" edge="1" parent="1" source="xJj9gay0s5eyYbDpVhSb-29" target="xJj9gay0s5eyYbDpVhSb-34">
          <mxGeometry relative="1" as="geometry" />
        </mxCell>
        <mxCell id="xJj9gay0s5eyYbDpVhSb-29" value="Coach" style="swimlane;fontStyle=0;childLayout=stackLayout;horizontal=1;startSize=30;horizontalStack=0;resizeParent=1;resizeParentMax=0;resizeLast=0;collapsible=1;marginBottom=0;rounded=1;shadow=0;hachureGap=4;pointerEvents=0;fontSize=15;strokeWidth=3;fillColor=#DAE8FC;align=center;swimlaneFillColor=default;" vertex="1" parent="1">
          <mxGeometry x="40" y="860" width="140" height="150" as="geometry" />
        </mxCell>
        <mxCell id="xJj9gay0s5eyYbDpVhSb-30" value="first_Name" style="text;strokeColor=none;fillColor=none;align=center;verticalAlign=middle;spacingLeft=4;spacingRight=4;overflow=hidden;points=[[0,0.5],[1,0.5]];portConstraint=eastwest;rotatable=0;fontSize=20;" vertex="1" parent="xJj9gay0s5eyYbDpVhSb-29">
          <mxGeometry y="30" width="140" height="30" as="geometry" />
        </mxCell>
        <mxCell id="xJj9gay0s5eyYbDpVhSb-31" value="Last_Name" style="text;strokeColor=none;fillColor=none;align=center;verticalAlign=middle;spacingLeft=4;spacingRight=4;overflow=hidden;points=[[0,0.5],[1,0.5]];portConstraint=eastwest;rotatable=0;fontSize=20;" vertex="1" parent="xJj9gay0s5eyYbDpVhSb-29">
          <mxGeometry y="60" width="140" height="30" as="geometry" />
        </mxCell>
        <mxCell id="xJj9gay0s5eyYbDpVhSb-32" value="Age" style="text;strokeColor=none;fillColor=none;align=center;verticalAlign=middle;spacingLeft=4;spacingRight=4;overflow=hidden;points=[[0,0.5],[1,0.5]];portConstraint=eastwest;rotatable=0;fontSize=20;" vertex="1" parent="xJj9gay0s5eyYbDpVhSb-29">
          <mxGeometry y="90" width="140" height="30" as="geometry" />
        </mxCell>
        <mxCell id="xJj9gay0s5eyYbDpVhSb-33" value="Specialty" style="text;strokeColor=none;fillColor=none;align=center;verticalAlign=middle;spacingLeft=4;spacingRight=4;overflow=hidden;points=[[0,0.5],[1,0.5]];portConstraint=eastwest;rotatable=0;rounded=1;shadow=0;hachureGap=4;pointerEvents=0;fontSize=20;" vertex="1" parent="xJj9gay0s5eyYbDpVhSb-29">
          <mxGeometry y="120" width="140" height="30" as="geometry" />
        </mxCell>
        <mxCell id="xJj9gay0s5eyYbDpVhSb-38" value="" style="edgeStyle=orthogonalEdgeStyle;rounded=0;orthogonalLoop=1;jettySize=auto;html=1;fontSize=19;fontColor=#FFFCFC;endArrow=open;startSize=14;endSize=14;sourcePerimeterSpacing=8;targetPerimeterSpacing=8;exitX=0.5;exitY=0;exitDx=0;exitDy=0;" edge="1" parent="1" source="xJj9gay0s5eyYbDpVhSb-34">
          <mxGeometry relative="1" as="geometry">
            <mxPoint x="90" y="650" as="targetPoint" />
          </mxGeometry>
        </mxCell>
        <mxCell id="xJj9gay0s5eyYbDpVhSb-34" value="Lead" style="rhombus;whiteSpace=wrap;html=1;rounded=1;shadow=0;hachureGap=4;pointerEvents=0;fontSize=19;strokeWidth=3;fillColor=#b1ddf0;align=center;strokeColor=#10739e;" vertex="1" parent="1">
          <mxGeometry x="50" y="720" width="80" height="80" as="geometry" />
        </mxCell>
        <mxCell id="xJj9gay0s5eyYbDpVhSb-45" style="edgeStyle=orthogonalEdgeStyle;rounded=0;orthogonalLoop=1;jettySize=auto;html=1;exitX=0.5;exitY=1;exitDx=0;exitDy=0;entryX=0.5;entryY=0;entryDx=0;entryDy=0;fontSize=19;fontColor=#FFFCFC;endArrow=open;startSize=14;endSize=14;sourcePerimeterSpacing=8;targetPerimeterSpacing=8;" edge="1" parent="1" source="xJj9gay0s5eyYbDpVhSb-43" target="xJj9gay0s5eyYbDpVhSb-25">
          <mxGeometry relative="1" as="geometry" />
        </mxCell>
        <mxCell id="xJj9gay0s5eyYbDpVhSb-43" value="Accomodate" style="rhombus;whiteSpace=wrap;html=1;rounded=1;shadow=0;hachureGap=4;pointerEvents=0;fontSize=19;fontColor=#FFFCFC;strokeWidth=3;fillColor=#DAE8FC;align=center;" vertex="1" parent="1">
          <mxGeometry x="30" y="450" width="130" height="70" as="geometry" />
        </mxCell>
        <mxCell id="xJj9gay0s5eyYbDpVhSb-46" value="&lt;font color=&quot;#000000&quot;&gt;1..n&lt;/font&gt;" style="text;html=1;strokeColor=none;fillColor=none;align=center;verticalAlign=middle;whiteSpace=wrap;rounded=0;shadow=0;hachureGap=4;pointerEvents=0;fontSize=19;fontColor=#FFFCFC;" vertex="1" parent="1">
          <mxGeometry x="230" y="300" width="40" height="20" as="geometry" />
        </mxCell>
        <mxCell id="xJj9gay0s5eyYbDpVhSb-47" value="&lt;font color=&quot;#000000&quot;&gt;1..1&lt;/font&gt;" style="text;html=1;strokeColor=none;fillColor=none;align=center;verticalAlign=middle;whiteSpace=wrap;rounded=0;shadow=0;hachureGap=4;pointerEvents=0;fontSize=19;fontColor=#FFFCFC;" vertex="1" parent="1">
          <mxGeometry x="620" y="270" width="40" height="20" as="geometry" />
        </mxCell>
        <mxCell id="xJj9gay0s5eyYbDpVhSb-48" value="&lt;font color=&quot;#000000&quot;&gt;1..2&lt;/font&gt;" style="text;html=1;strokeColor=none;fillColor=none;align=center;verticalAlign=middle;whiteSpace=wrap;rounded=0;shadow=0;hachureGap=4;pointerEvents=0;fontSize=19;fontColor=#FFFCFC;" vertex="1" parent="1">
          <mxGeometry x="100" y="670" width="40" height="20" as="geometry" />
        </mxCell>
        <mxCell id="xJj9gay0s5eyYbDpVhSb-49" value="&lt;font color=&quot;#000000&quot;&gt;1..20&lt;/font&gt;" style="text;html=1;strokeColor=none;fillColor=none;align=center;verticalAlign=middle;whiteSpace=wrap;rounded=0;shadow=0;hachureGap=4;pointerEvents=0;fontSize=19;fontColor=#FFFCFC;" vertex="1" parent="1">
          <mxGeometry x="100" y="530" width="40" height="20" as="geometry" />
        </mxCell>
        <mxCell id="xJj9gay0s5eyYbDpVhSb-50" value="&lt;font color=&quot;#000000&quot;&gt;1..n&lt;/font&gt;" style="text;html=1;strokeColor=none;fillColor=none;align=center;verticalAlign=middle;whiteSpace=wrap;rounded=0;shadow=0;hachureGap=4;pointerEvents=0;fontSize=19;fontColor=#FFFCFC;" vertex="1" parent="1">
          <mxGeometry x="690" y="370" width="40" height="20" as="geometry" />
        </mxCell>
      </root>
    </mxGraphModel>
  </diagram>
</mxfile>
